<?xml version="1.0" encoding="UTF-8" standalone="no"?>
<!-- Created with Inkscape (http://www.inkscape.org/) -->
<svg
   xmlns:dc="http://purl.org/dc/elements/1.1/"
   xmlns:cc="http://web.resource.org/cc/"
   xmlns:rdf="http://www.w3.org/1999/02/22-rdf-syntax-ns#"
   xmlns:svg="http://www.w3.org/2000/svg"
   xmlns="http://www.w3.org/2000/svg"
   xmlns:sodipodi="http://sodipodi.sourceforge.net/DTD/sodipodi-0.dtd"
   xmlns:inkscape="http://www.inkscape.org/namespaces/inkscape"
   id="svg2"
   sodipodi:version="0.32"
   inkscape:version="0.45.1"
   width="113"
   height="250"
   version="1.0"
   sodipodi:docbase="D:\Chris\Daten\Graphik\svg\Wikipedia\Nur vektorisiert"
   sodipodi:docname="Karatedo.svg"
   inkscape:output_extension="org.inkscape.output.svg.inkscape">
  <metadata
     id="metadata7">
    <rdf:RDF>
      <cc:Work
         rdf:about="">
        <dc:format>image/svg+xml</dc:format>
        <dc:type
           rdf:resource="http://purl.org/dc/dcmitype/StillImage" />
      </cc:Work>
    </rdf:RDF>
  </metadata>
  <defs
     id="defs5" />
  <sodipodi:namedview
     inkscape:window-height="579"
     inkscape:window-width="801"
     inkscape:pageshadow="2"
     inkscape:pageopacity="0.0"
     guidetolerance="10.0"
     gridtolerance="10.0"
     objecttolerance="10.0"
     borderopacity="1.0"
     bordercolor="#666666"
     pagecolor="#ffffff"
     id="base"
     inkscape:zoom="1.576"
     inkscape:cx="56.5"
     inkscape:cy="125"
     inkscape:window-x="110"
     inkscape:window-y="110"
     inkscape:current-layer="svg2" />
  <path
     style="fill:#000000"
     d="M 56.5,237.87134 C 51.506461,236.2788 26.992078,233 20.078819,233 C 16.372929,233 14.006599,232.63019 14.55,232.13596 C 15.847793,230.9556 24.199611,229 27.94282,229 C 30.701032,229 31,228.69401 31,225.87099 C 31,224.15003 29.851148,219.55709 28.446996,215.66445 C 26.554257,210.41733 26.062474,207.5897 26.545448,204.73099 C 27.019337,201.92607 26.771609,200.40511 25.63659,199.15093 C 22.152406,195.30095 19.485867,185 21.973433,185 C 23.2392,185 30,195.03659 30,196.91565 C 30,197.70895 29.465497,199.83615 28.812216,201.64276 C 27.804816,204.42868 27.881071,205.2111 29.314337,206.79485 C 30.948505,208.60058 36,222.05646 36,224.60372 C 36,225.2931 35.325211,226.53193 34.500469,227.35667 C 33.167761,228.68938 33.640574,228.92106 38.750469,229.43916 C 41.912711,229.75979 47.355306,230.4862 50.845125,231.05341 C 57.744359,232.17476 90.423681,232.42686 92.327629,231.37342 C 92.972433,231.01665 92.589178,231.68501 91.475951,232.85865 C 87.863881,236.66675 79.080974,239.00955 68.774983,238.91405 C 63.673742,238.86677 58.15,238.39755 56.5,237.87134 z M 62.615432,225.75 C 62.966919,223.4125 63.280649,221.275 63.31261,221 C 63.740609,217.31739 59.888001,194.55467 58.622537,193.2892 C 57.57224,192.23891 52.220106,197.06826 51.75855,199.48273 C 51.313497,201.81087 51.559413,202 55.031683,202 C 59.892653,202 60.673888,204.04568 57.330388,208.0192 C 54.886776,210.92327 54.842944,211.16467 56.534643,212.40167 C 57.806806,213.3319 58.087277,214.25912 57.503721,215.60539 C 57.05204,216.64743 56.765074,217.87095 56.866018,218.32433 C 56.966962,218.77771 56.581063,218.85912 56.008465,218.50523 C 55.435866,218.15135 55.257368,217.39259 55.611803,216.8191 C 55.966238,216.24561 55.636079,215.3836 54.878115,214.90351 C 52.623869,213.47569 51.841869,213.86601 52.180449,216.25 C 52.382292,217.6712 53.713158,219.0338 55.793455,219.94914 C 58.196945,221.00669 59.007612,221.95247 58.793455,223.44914 C 58.556268,225.10676 57.780957,225.49424 54.75,225.46997 C 52.6875,225.45346 51,225.79096 51,226.21997 C 51,226.64899 50.120391,227 49.045313,227 C 46.181186,227 45.510522,221.63446 46.762365,208.73563 C 47.549839,200.62161 48.466005,196.54359 50.362222,192.71203 C 51.761177,189.88526 52.784048,187.45071 52.635269,187.30194 C 52.48649,187.15316 48.64706,188.59936 44.103202,190.51571 C 39.559344,192.43207 35.216395,194 34.452205,194 C 31.359582,194 34.599969,190.82898 42.132247,186.48437 C 52.132383,180.71629 58.701968,172.36402 62.393262,160.72544 C 62.828387,159.35349 63.584997,159.10117 65.728041,159.61332 C 73.372138,161.44013 72.88318,165.0299 63.980113,172.44607 C 56.69854,178.51154 55.620411,180.28189 60.85741,177.57374 C 64.576814,175.65036 68.019361,175.56245 70.435482,177.32917 C 71.94182,178.43063 72.054192,179.03022 71.091428,180.82917 C 70.452441,182.02312 69.187487,183 68.28042,183 C 67.373354,183 64.088498,183.71345 60.980741,184.58544 C 56.769261,185.76712 54.906218,186.88875 53.665137,188.98973 C 50.94072,193.6018 51.752199,194.36432 55.893904,191.08403 C 59.986878,187.84233 64.947525,187.00587 66.770549,189.25 C 68.007318,190.77246 68.825554,216.99699 67.690983,218.75 C 67.235551,219.45368 67.315584,220 67.8741,220 C 69.095798,220 69.065963,225.85728 67.832078,228.25 C 67.335733,229.2125 65.815147,230 64.452999,230 C 62.105733,230 62.009747,229.778 62.615432,225.75 z M 56,205.81967 C 56,204.36034 55.426305,203.94238 53.75,204.18045 C 52.5125,204.3562 51.6125,204.8375 51.75,205.25 C 51.8875,205.6625 52.014971,207.4625 52.033269,209.25 L 52.066539,212.5 L 54.033269,210.13922 C 55.114971,208.84078 56,206.89699 56,205.81967 z M 40.437091,174.92572 C 37.574438,171.92935 37.549463,171.81511 39.45165,170.41803 C 40.828297,169.40693 42.775697,169.16667 46.061426,169.60254 C 48.878401,169.97622 51.664302,169.75511 53.109776,169.04311 L 55.5,167.86577 L 53.093909,169.80493 C 51.641928,170.97513 50.921241,172.35237 51.27647,173.27809 C 51.600228,174.12179 51.072536,175.52937 50.10382,176.40604 C 47.347126,178.90082 43.701427,178.34253 40.437091,174.92572 z M 47.862562,156.02684 C 46.563153,154.39159 44.26766,152.78197 42.761468,152.4499 C 38.063682,151.41416 38.9509,150.48328 44.27782,150.85891 C 51.15713,151.34401 52,150.04265 52,138.93616 L 52,130.25457 L 45.75,133.37728 C 42.3125,135.09478 39.275,136.76944 39,137.09875 C 38.725,137.42806 37.825,137.69243 37,137.68624 C 36.175,137.68006 33.847591,137.98693 31.827981,138.36818 C 25.736606,139.51808 25.450059,135.53603 31.300919,131.04376 C 34.18202,128.83166 34.31065,128.80681 32.595012,130.79376 C 30.262971,133.49459 30.906975,133.54661 36.304864,131.09345 C 38.612189,130.04484 43.105165,128.03679 46.289255,126.63111 C 51.60131,124.28601 52.04457,123.84555 51.666763,121.28767 C 51.165384,117.89316 49.978148,118.08142 44.61227,122.40628 C 42.350521,124.22924 39.15,126.51896 37.5,127.49456 C 34.822843,129.07749 34.876651,128.95869 38,126.39057 C 39.925,124.80778 43.075,122.00957 45,120.17233 L 48.5,116.83189 L 45.287986,117.38335 C 42.793296,117.81165 41.397512,117.36392 39.037986,115.37851 C 34.811681,111.82231 34.978902,109.2 39.431982,109.2 C 41.319572,109.2 44.454741,108.675 46.399024,108.03333 C 49.576924,106.98452 49.921044,106.51977 49.805012,103.43333 C 49.734023,101.545 49.579472,100 49.461567,100 C 49.343662,100 47.335956,101.8 45,104 C 36.847205,111.67829 38.556906,107.84521 50.169973,92.409131 C 52.276488,89.609154 54,86.571654 54,85.659131 C 54,83.711233 55.292924,83.558617 58.315741,85.149704 C 63.625142,87.944354 63.184838,91.099413 56.950058,94.935712 C 52.3889,97.74222 52.050135,98.192992 53.450058,99.592915 C 54.302526,100.44538 55,101.78571 55,102.57143 C 55,103.49887 56.075432,104 58.065741,104 C 61.531833,104 65,105.55464 65,107.10835 C 65,107.67925 63.2,109.76223 61,111.73721 C 57.850315,114.56475 57,116.03724 57,118.66404 C 57,122.34219 57.305968,122.4865 61.789985,120.92337 C 64.043267,120.13787 64.719851,119.39424 64.29203,118.17337 C 63.839793,116.88282 63.989235,116.76136 64.945266,117.64244 C 65.644674,118.28702 67.796891,118.56867 69.883934,118.28874 C 72.579661,117.92717 73.962854,118.25032 74.983501,119.48012 C 77.26974,122.23487 75.014502,124.39153 68.89342,125.30399 C 65.927039,125.74619 62.817088,126.21749 61.982419,126.35133 C 58.369305,126.9307 57.816479,128.10245 58.439079,133.86169 C 58.774319,136.96276 58.634485,143.01284 58.128337,147.3063 C 56.77898,158.75239 52.748807,162.17593 47.862562,156.02684 z M 29.032479,80.060688 C 27.816885,77.78933 28.255499,77.417897 33.262466,76.478584 C 38.254152,75.542138 44.097806,71.171645 48.061909,65.410018 L 51.29816,60.706288 L 46.6765,61.227216 C 42.716143,61.673606 41.966307,61.469204 41.436114,59.798712 C 40.625446,57.244525 41.038261,56.920365 47.783866,54.814195 C 58.296789,51.531761 65.11182,52.921605 63.494243,58.018138 C 62.493149,61.172306 54.228837,70.132125 53.635984,68.706047 C 53.345778,68.007971 52.852728,68.424003 52.465365,69.693807 C 52.097284,70.900401 50.829498,72.044271 49.648063,72.235741 C 48.466629,72.427211 52.675,72.604318 59,72.629313 C 72.048283,72.680877 74.562166,73.217717 75.319661,76.114383 C 75.74006,77.721992 75.134138,78.463834 72.502606,79.563358 C 69.623827,80.766189 68.58326,80.764248 65.140656,79.549626 C 60.446007,77.893258 50.171602,78.277624 39.292158,80.516621 C 30.218245,82.384039 30.277303,82.386663 29.032479,80.060688 z M 46.526461,72.193128 C 46.218574,71.885241 45.411667,72.192494 44.733333,72.875912 C 43.753066,73.863528 43.86793,73.978392 45.293128,73.435707 C 46.279349,73.060176 46.834349,72.501015 46.526461,72.193128 z M 35.868238,47.41235 C 38.089254,44.889142 40.900308,40.726642 42.115025,38.16235 C 43.329743,35.598057 44.461748,33.326544 44.630593,33.114542 C 45.247256,32.340257 50,36.084408 50,37.344492 C 50,42.942448 40.682368,52 34.923672,52 L 31.830027,52 L 35.868238,47.41235 z M 61.965483,49.541591 C 62.925421,48.384936 62.514072,47.537631 59.827026,45.136755 C 56.984355,42.596829 56.5,41.504277 56.5,37.632029 C 56.5,32.084394 58.438766,29.557425 60.525984,32.384599 C 61.865628,34.19917 62.043623,34.162012 65.316176,31.384599 C 67.185542,29.79807 69.232956,27.7125 69.865986,26.75 C 70.900565,25.176956 70.586341,25.000407 66.758474,25.004021 C 61.754486,25.008747 44.754627,27.611779 40.646358,29.002331 C 38.554709,29.710304 37.272705,29.603991 35.84529,28.60419 C 34.054532,27.349895 34.505339,27.018602 41.448932,24.486132 C 49.75653,21.456182 50.176715,20.752037 47.5,14.345757 C 45.575347,9.7394155 45.612398,9 47.767865,9 C 50.86285,9 57.035589,13.927947 57.623655,16.868275 L 58.172757,19.613787 L 69.506903,19.556894 C 79.525253,19.506605 81.169526,19.744711 83.670524,21.607921 C 85.63835,23.073924 86.5,24.596556 86.5,26.607921 C 86.5,29.604191 86.319745,29.695865 75,32.456574 C 74.175,32.657779 72.233205,33.312361 70.6849,33.9112 C 69.136596,34.51004 66.549096,35 64.9349,35 C 63.108709,35 62,35.520395 62,36.377555 C 62,38.496218 64.189225,39.846717 68.825472,40.588082 C 71.780316,41.060581 73.619204,42.06085 74.938099,43.913067 C 77.714334,47.811931 76.164199,49.965839 71.073423,49.283022 C 68.910161,48.992868 65.708475,49.254578 63.958566,49.864599 C 61.233418,50.814591 60.94745,50.768245 61.965483,49.541591 z M 22.378345,40.454675 C 20.968071,38.302324 20.891429,37.305744 21.881931,33.999741 C 23.211725,29.561285 27.487302,24 29.569842,24 C 31.781282,24 32.42274,28.890646 31.070188,35.439051 C 30.384229,38.760139 29.611259,41.819979 29.352478,42.238696 C 28.269292,43.991328 23.97606,42.893096 22.378345,40.454675 z "
     id="path2161" />
</svg>
