<?xml version="1.0" encoding="UTF-8" standalone="no"?>
<!-- Created with Inkscape (http://www.inkscape.org/) -->
<svg
   xmlns:dc="http://purl.org/dc/elements/1.1/"
   xmlns:cc="http://web.resource.org/cc/"
   xmlns:rdf="http://www.w3.org/1999/02/22-rdf-syntax-ns#"
   xmlns:svg="http://www.w3.org/2000/svg"
   xmlns="http://www.w3.org/2000/svg"
   xmlns:sodipodi="http://sodipodi.sourceforge.net/DTD/sodipodi-0.dtd"
   xmlns:inkscape="http://www.inkscape.org/namespaces/inkscape"
   id="svg2"
   sodipodi:version="0.32"
   inkscape:version="0.45.1"
   width="300"
   height="298"
   version="1.0"
   sodipodi:docbase="D:\Chris\Daten\Graphik\svg\Wikipedia\Nur vektorisiert"
   sodipodi:docname="ShotokanTiger.svg"
   inkscape:output_extension="org.inkscape.output.svg.inkscape">
  <metadata
     id="metadata7">
    <rdf:RDF>
      <cc:Work
         rdf:about="">
        <dc:format>image/svg+xml</dc:format>
        <dc:type
           rdf:resource="http://purl.org/dc/dcmitype/StillImage" />
      </cc:Work>
    </rdf:RDF>
  </metadata>
  <defs
     id="defs5" />
  <sodipodi:namedview
     inkscape:window-height="781"
     inkscape:window-width="1280"
     inkscape:pageshadow="2"
     inkscape:pageopacity="0.0"
     guidetolerance="10.0"
     gridtolerance="10.0"
     objecttolerance="10.0"
     borderopacity="1.0"
     bordercolor="#666666"
     pagecolor="#ffffff"
     id="base"
     inkscape:zoom="1.3221477"
     inkscape:cx="150"
     inkscape:cy="149"
     inkscape:window-x="-4"
     inkscape:window-y="-4"
     inkscape:current-layer="svg2" />
  <path
     style="fill:#000000"
     d="M 139.14822,292.52102 C 125.67656,291.2033 118.98471,289.73452 111.84661,286.52863 C 107.55573,284.60149 102.65661,282.84903 100.95968,282.63427 C 96.22655,282.03526 76.81735,271.85557 71.64822,267.26107 C 70.54822,266.28335 66.89288,263.81223 63.52524,261.76969 C 57.15299,257.90479 46.67547,246.97289 35.64822,232.68375 C 28.296,223.15673 26.4296,220.13722 20.81328,208.68344 C 15.41288,197.66999 13.86382,193.29155 9.4919498,176.68344 C 6.3079598,164.58793 6.1065598,162.9181 6.5973698,152.68344 C 7.4587398,134.72155 8.8443698,122.63775 10.45384,119.05203 C 11.28544,117.1993 12.17972,114.55844 12.44113,113.18344 C 13.31534,108.58513 16.34604,97.841764 17.21707,96.253444 C 19.29736,92.460077 22.14822,85.150486 22.14822,83.610024 C 22.14822,81.785746 27.69262,71.583041 29.1853,70.660513 C 30.31632,69.961504 37.14822,59.747115 37.14822,58.755132 C 37.14822,57.278195 51.75663,41.947664 54.55654,40.486288 C 56.15612,39.651408 60.20612,36.836321 63.55654,34.230539 C 74.83658,25.457519 84.60446,19.61713 91.91219,17.2762 C 95.90738,15.996398 100.27786,14.082698 101.62437,13.023533 C 102.97088,11.964368 107.17942,10.505795 110.97669,9.7822583 C 114.77395,9.0587217 118.41665,8.1355699 119.07156,7.7308099 C 120.64648,6.7574573 139.17989,4.9437685 146.14822,5.081074 C 166.09285,5.4740672 186.41981,7.7571408 190.98395,10.11691 C 192.9993,11.158897 197.98522,13.025178 202.06379,14.264202 C 206.26355,15.540046 212.55156,18.538805 216.56379,21.179271 C 220.46022,23.743536 225.8235,27.084601 228.48218,28.60386 C 234.29034,31.922841 251.69457,47.858137 258.64822,56.22386 C 261.39822,59.5323 265.04696,63.914157 266.75653,65.96132 C 272.59979,72.958451 283.30689,97.117348 287.68513,113.18344 C 288.95913,117.85844 290.75797,124.15844 291.68254,127.18344 C 294.11145,135.13029 294.27887,160.44606 291.957,168.68344 C 291.02683,171.98344 289.51573,178.0234 288.59901,182.10558 C 287.25166,188.10535 278.71939,207.85628 274.30959,215.18344 C 273.81307,216.00844 272.49228,218.74314 271.37451,221.26056 C 270.25674,223.77797 267.50166,227.96425 265.25211,230.5634 C 263.00256,233.16255 260.63867,236.27785 259.99902,237.48628 C 258.86948,239.62024 252.31606,246.95404 245.10875,254.14969 C 236.42378,262.82063 231.07323,266.63363 220.23841,271.87323 C 213.86381,274.95593 207.44045,278.32129 205.96429,279.35183 C 199.93286,283.56249 182.96525,287.93679 158.14822,291.67895 C 148.81536,293.08626 146.13942,293.20485 139.14822,292.52102 z M 163.14822,282.25168 C 169.47322,281.72763 174.87322,281.266 175.14822,281.22584 C 175.42322,281.18568 175.02947,280.76088 174.27322,280.28186 C 172.55409,279.19292 172.50578,275.14864 174.16407,271.14517 C 176.21168,266.2018 184.14405,263.30539 182.72951,268.0176 C 182.45448,268.93381 181.97779,271.87887 181.67021,274.56216 L 181.11098,279.44089 L 184.3796,278.79453 C 186.17734,278.43904 192.82322,275.72086 199.14822,272.75413 C 205.47322,269.78741 212.44822,266.80126 214.64822,266.11824 C 221.25495,264.06711 225.69847,260.66627 239.81208,246.85911 C 253.44054,233.52657 263.14822,220.90192 263.14822,216.51092 C 263.14822,215.26511 265.1899,211.08968 267.6853,207.2322 C 270.18069,203.37472 273.60303,196.97411 275.29049,193.00863 C 292.35663,152.9038 288.51816,121.36289 260.48978,71.39039 C 255.69158,62.835562 225.82496,34.183433 221.70571,34.183433 C 220.98378,34.183433 219.80239,33.471659 219.0804,32.601713 C 218.35841,31.731767 216.32806,30.269267 214.56852,29.351713 C 212.80898,28.434159 209.33445,26.426526 206.84734,24.890306 C 201.58527,21.640066 187.5092,16.604054 181.46989,15.810985 C 170.71778,14.399041 140.72348,13.00349 132.64822,13.539449 C 123.23424,14.164259 121.1645,14.63668 112.14822,18.218616 C 109.12322,19.420371 103.77316,21.494359 100.2592,22.82748 C 81.91361,29.787392 75.98826,33.593939 57.42675,50.343776 C 48.96326,57.981195 44.5959,62.872068 39.65716,70.243401 C 32.89439,80.337183 25.10831,96.651125 22.56172,106.06294 C 21.76117,109.02167 20.86603,111.83101 20.57253,112.3059 C 19.04237,114.78175 14.39641,141.83533 14.23948,149.18344 C 14.01584,159.65504 16.16188,173.25064 19.60631,183.18344 C 21.03675,187.30844 23.13096,193.38344 24.26013,196.68344 C 27.06721,204.88721 33.36144,216.07603 39.34616,223.50086 C 42.08704,226.90128 45.18765,231.35081 46.2364,233.38871 C 48.54631,237.87724 52.60249,242.02129 65.67521,253.24864 C 73.87966,260.29494 78.21957,263.08845 90.14822,269.0014 C 98.12322,272.95456 105.7298,276.18772 107.05173,276.1862 C 108.37366,276.18468 111.89476,277.33752 114.8764,278.74806 C 117.85804,280.1586 122.17646,281.53908 124.47289,281.81579 C 126.76932,282.0925 130.22322,282.71979 132.14822,283.20976 C 135.76069,284.12923 143.29922,283.89625 163.14822,282.25168 z M 163.50899,278.6812 C 162.4985,276.04791 165.37982,269.22646 170.86639,261.26278 C 171.58578,260.2186 188.74218,256.48125 189.51109,257.20122 C 190.88303,258.48585 189.38903,259.97164 185.97037,260.7225 C 184.23516,261.10362 182.32782,261.82103 181.73184,262.31676 C 181.13585,262.81249 179.12318,264.22279 177.25924,265.45076 C 175.19732,266.80917 173.23942,269.30861 172.25924,271.83374 C 169.54615,278.82317 164.94511,282.42369 163.50899,278.6812 z M 184.54823,271.93344 C 185.56831,265.32086 187.93153,262.86668 194.56073,261.53553 C 197.70488,260.90418 200.48146,260.18353 200.7309,259.93409 C 200.98034,259.68465 199.15128,258.40199 196.66632,257.08372 C 194.18137,255.76546 192.14822,254.37188 192.14822,253.9869 C 192.14822,253.60191 194.87163,252.52277 198.20024,251.58881 C 201.52885,250.65485 206.04493,248.5921 208.23596,247.00493 C 210.42698,245.41775 213.51723,243.85964 215.10317,243.54245 C 217.9359,242.9759 217.97312,243.02594 217.21595,246.38316 C 215.91485,252.15205 213.32198,255.11089 208.50479,256.32387 C 202.66109,257.79533 202.29305,258.76673 207.74367,258.33275 C 211.29823,258.04973 212.14822,258.29785 212.14822,259.61848 C 212.14822,262.89246 200.53745,271.35731 192.1892,274.16964 C 183.90802,276.95936 183.77874,276.92153 184.54823,271.93344 z M 88.51827,259.74305 C 83.48832,257.55409 83.68173,256.46272 89.59534,253.66513 C 92.62609,252.23136 96.43353,249.44749 98.05633,247.47875 C 100.79274,244.15902 101.12607,244.01843 102.64928,245.54164 C 104.17249,247.06485 104.13758,247.60133 102.16827,252.93375 C 101.00039,256.09608 99.3071,259.24594 98.4054,259.93344 C 96.29855,261.53982 92.47795,261.46625 88.51827,259.74305 z M 74.64822,255.61206 C 73.54822,254.76856 69.87866,252.41455 66.49364,250.38093 C 59.82853,246.37673 52.61943,240.3789 53.46062,239.53771 C 53.74795,239.25037 55.82021,238.76887 58.06563,238.46769 C 60.31105,238.16652 62.14822,237.50896 62.14822,237.00646 C 62.14822,236.19591 57.47,236.59688 53.066,237.78489 C 51.03798,238.33197 47.72871,234.71903 48.47544,232.7731 C 49.24348,230.7716 56.68475,228.87391 60.76411,229.6392 C 64.28367,230.29948 68.14822,234.28314 68.14822,237.25091 C 68.14822,238.23968 69.01111,239.32254 70.06576,239.65727 C 72.44501,240.41241 77.14822,244.04733 77.14822,245.13102 C 77.14822,245.57235 75.68572,246.28898 73.89822,246.72354 L 70.64822,247.51363 L 73.3866,247.91384 C 76.42446,248.35781 82.44481,253.78309 81.86437,255.55363 C 81.29483,257.2909 76.88413,257.32661 74.64822,255.61206 z M 68.33572,247.50033 C 67.61384,247.21146 66.75134,247.24698 66.41905,247.57927 C 66.08676,247.91157 66.67738,248.14791 67.73155,248.10449 C 68.89649,248.05651 69.13345,247.81955 68.33572,247.50033 z M 81.7084,248.05212 C 77.63564,244.84849 76.59543,241.29178 79.02166,238.86555 C 81.45257,236.43464 83.82973,237.21556 85.23283,240.90598 C 85.81286,242.43157 86.99321,244.45966 87.85583,245.41285 C 89.13195,246.82295 89.18934,247.42896 88.16378,248.66468 C 86.45627,250.72211 84.91707,250.57606 81.7084,248.05212 z M 192.78309,248.40166 C 192.452,247.86596 194.00859,245.35153 196.24217,242.81405 C 199.75793,238.81993 201.40057,237.86553 208.47572,235.70615 C 212.97059,234.33428 218.40462,232.01741 220.55134,230.55754 C 224.10873,228.13836 233.14822,226.00451 233.14822,227.58394 C 233.14822,227.94727 231.57322,229.62741 229.64822,231.31758 C 227.72322,233.00776 226.14822,235.00863 226.14822,235.76398 C 226.14822,237.90081 222.30061,239.93995 210.00359,244.32028 C 196.93242,248.97636 193.62302,249.76071 192.78309,248.40166 z M 89.37342,240.84397 C 85.6186,239.48261 82.15812,234.84274 82.16846,231.18344 C 82.18229,226.29019 83.26871,224.18344 85.77827,224.18344 C 88.14473,224.18344 88.15591,224.13761 86.66164,220.56132 C 84.62985,215.69856 84.75606,213.44268 87.10155,212.69825 C 89.03846,212.0835 89.03849,212.05142 87.10528,208.88087 C 85.81456,206.76401 85.14368,203.82472 85.12015,200.18344 C 85.09924,196.94672 84.48044,193.88466 83.61641,192.74231 C 81.67059,190.1697 81.81052,187.52305 84.14822,182.68344 C 85.21089,180.48344 86.09562,177.15092 86.11429,175.27783 C 86.13524,173.17467 87.17972,170.49758 88.84535,168.27783 C 92.04501,164.01374 93.07021,163.21912 95.39822,163.19875 C 97.67297,163.17885 97.60823,164.85828 95.14822,169.68344 C 93.00136,173.89437 92.52291,178.67894 94.14822,179.68344 C 94.76486,180.06455 95.14822,178.35003 95.14822,175.21107 C 95.14822,171.7331 95.5986,169.94784 96.57008,169.57505 C 99.0074,168.63976 102.25886,171.17946 104.17981,175.51896 C 105.29567,178.03975 107.33068,180.43585 109.33574,181.58975 L 112.64822,183.49606 L 110.44307,181.07304 C 107.39571,177.7246 103.14822,169.51584 103.14822,166.97492 C 103.14822,162.82852 107.57654,158.67319 114.10032,156.69794 C 119.85393,154.95589 120.33866,154.94531 121.92054,156.52719 C 123.5008,158.10745 123.50129,158.51162 121.92831,162.94852 C 121.00505,165.55273 119.94329,170.83344 119.56884,174.68344 C 119.19439,178.53344 118.2791,183.18286 117.53487,185.01548 C 116.36395,187.89878 116.39624,188.76237 117.77461,191.42785 C 120.20771,196.13295 118.32414,200.99968 111.89248,206.62594 C 104.82383,212.80942 103.88354,212.64508 104.70662,205.37001 C 105.2462,200.60079 104.966,198.63062 103.14668,194.4015 C 101.92697,191.5662 100.22401,188.66974 99.36233,187.96493 C 98.4632,187.22948 98.90068,188.60087 100.38905,191.18344 C 102.7962,195.36026 102.96536,196.45698 102.74453,206.45424 C 102.48985,217.98383 101.70329,220.08606 98.32132,218.27608 C 97.19843,217.67513 96.06595,217.18344 95.80471,217.18344 C 94.64259,217.18344 99.25947,224.97262 102.02838,227.68344 C 103.71374,229.33344 105.10516,230.98519 105.12044,231.35398 C 105.13572,231.72278 103.7432,232.33312 102.02594,232.7103 C 99.48382,233.26864 98.06982,232.80831 94.41609,230.23293 C 91.94793,228.49321 89.79124,227.20787 89.62344,227.37662 C 89.07366,227.92953 93.69077,232.79392 95.38098,233.44252 C 97.71062,234.33648 100.47911,238.87878 99.78955,240.67572 C 99.09674,242.48116 94.11116,242.56169 89.37342,240.84397 z M 200.76835,234.93344 C 201.17434,234.24594 202.48435,232.33344 203.67948,230.68344 C 204.87462,229.03344 206.10808,226.95276 206.4205,226.05971 C 206.74012,225.1461 208.66348,224.12786 210.81838,223.73144 C 220.368,221.9747 224.14822,220.95204 224.14822,220.12533 C 224.14822,219.62368 223.02506,219.65997 221.58312,220.20819 C 217.73344,221.67184 212.0264,221.38317 210.08544,219.62662 C 207.79454,217.55339 208.71659,214.51518 212.00212,213.31109 L 214.64822,212.34133 L 211.80213,212.26239 C 203.78186,212.03991 190.22132,205.25269 190.16625,201.43335 C 190.14784,200.15692 191.0492,200.07497 207.90041,199.82097 C 216.43053,199.69239 218.61254,198.1992 211.87151,197.10348 C 209.73317,196.7559 206.66196,195.07342 204.34524,192.9804 C 202.19265,191.03566 199.80521,189.18689 199.03983,188.87202 C 197.96306,188.42904 198.1007,188.00359 199.64822,186.99148 C 202.59763,185.0625 205.14167,184.3945 209.96284,184.28312 C 212.33588,184.2283 216.61088,183.24143 219.46284,182.09009 C 222.3148,180.93875 225.54822,179.6492 226.64822,179.22443 C 227.90454,178.73929 229.34965,176.38553 230.5346,172.89438 C 234.66846,160.71506 229.81699,161.43551 212.50074,175.57243 C 206.59421,180.39449 206.08466,180.60181 199.50074,180.86152 C 193.13279,181.11271 189.50651,180.56273 184.73418,178.62195 C 180.81872,177.02964 184.19802,179.94895 190.61307,183.70062 C 194.2074,185.80266 197.14822,187.86865 197.14822,188.29171 C 197.14822,189.19172 190.72995,190.25043 183.73185,190.50476 C 180.41028,190.62548 178.67212,190.25363 178.37352,189.35844 C 177.78595,187.59691 171.33341,181.18344 170.14872,181.18344 C 169.63566,181.18344 170.55066,183.1612 172.18205,185.57846 C 175.66567,190.74021 175.87679,192.18344 173.14822,192.18344 C 170.56461,192.18344 170.62403,192.91781 173.39822,195.27315 L 175.64822,197.18344 L 173.28744,199.18344 C 170.32917,201.68962 168.77384,201.69622 165.35773,199.21713 C 163.8675,198.13567 161.07322,196.99448 159.14822,196.68116 C 157.22322,196.36785 153.48082,194.77769 150.83177,193.14747 C 148.18273,191.51725 145.77249,190.18344 145.47568,190.18344 C 145.17887,190.18344 143.07127,188.75311 140.79212,187.00492 L 136.64822,183.82641 L 140.44475,187.84474 C 144.86804,192.52645 154.5784,198.16338 164.1966,201.63286 C 169.84759,203.67128 171.46082,203.89172 173.92388,202.96202 C 176.16859,202.11473 178.01008,202.16482 181.60346,203.17091 C 189.59858,205.4094 188.89401,208.49603 179.67244,211.63054 L 174.05898,213.53862 L 169.57685,211.36103 C 164.50626,208.89755 162.90449,208.55352 165.56583,210.49954 C 168.97105,212.9895 167.09271,215.52896 160.14822,217.82397 C 156.58585,219.00126 152.64966,219.77926 151.40114,219.55286 C 150.15263,219.32646 146.32246,220.0904 142.88967,221.2505 C 132.60016,224.7278 131.37109,224.66293 124.58478,220.28434 C 119.52901,217.02232 118.31135,215.67129 117.25778,212.15479 C 115.53048,206.38957 116.88637,205.08208 121.91603,207.66281 C 123.96874,208.71605 126.09822,209.79142 126.64822,210.05252 C 127.19822,210.31361 126.95544,209.66238 126.1087,208.60533 C 125.26197,207.54829 123.77787,204.93537 122.8107,202.79884 L 121.0522,198.91424 L 124.04525,199.51285 L 127.0383,200.11146 L 125.0184,196.68798 C 123.90745,194.80507 123.14468,192.30626 123.32336,191.13508 C 123.61644,189.21395 124.35735,189.56769 130.89822,194.75161 C 134.88572,197.91188 138.14822,200.891 138.14822,201.37188 C 138.14822,202.9649 134.89604,203.52673 132.00076,202.43388 C 130.43186,201.84169 129.14822,201.71581 129.14822,202.15416 C 129.14822,202.59251 131.73572,203.94452 134.89822,205.15863 C 149.70694,210.84382 150.35165,211.45529 142.89298,212.74128 L 138.64822,213.47314 L 142.14822,214.67828 C 144.52523,215.49674 146.53057,215.5793 148.39822,214.9356 C 151.47602,213.87481 151.77572,212.59716 149.61642,209.74231 C 147.50858,206.9555 147.78387,206.18639 150.89822,206.1612 L 153.64822,206.13897 L 151.14822,204.1988 C 149.77322,203.1317 147.29822,201.96696 145.64822,201.61048 C 141.73778,200.76563 132.37703,195.09778 128.96252,191.50744 C 125.57214,187.94248 122.39734,180.57643 121.60195,174.42974 C 121.09901,170.54311 121.56679,168.17538 124.1846,161.35731 C 125.94286,156.77794 128.00396,152.79229 128.76483,152.50032 C 129.52569,152.20835 130.14822,151.36917 130.14822,150.63547 C 130.14822,148.35026 132.12843,147.94045 134.77896,149.67715 C 136.17749,150.5935 137.42823,151.19479 137.55838,151.01334 C 137.68852,150.8319 138.25393,148.58143 138.81484,146.01231 L 139.83466,141.34117 L 136.24144,144.16585 C 129.68886,149.31692 118.65102,154.34306 110.98225,155.66776 C 106.94854,156.36455 103.50243,156.80733 103.32424,156.65173 C 103.14605,156.49613 104.04605,155.12498 105.32424,153.60473 C 110.22292,147.77834 112.9964,145.54002 119.17245,142.42861 C 127.59738,138.18425 134.64822,133.99017 136.97881,131.83681 C 139.2547,129.73399 139.34203,129.72806 140.69939,131.58433 C 141.5843,132.7945 141.88442,134.77485 141.52533,137.03435 C 141.03084,140.14581 141.15099,140.42603 142.49971,139.30669 C 143.34584,138.60446 145.0754,138.17696 146.34318,138.35668 C 148.34351,138.64024 148.72582,139.41051 149.23522,144.18344 C 149.55808,147.20844 149.89558,148.32107 149.98522,146.65595 C 150.07487,144.99082 150.84874,142.62832 151.70492,141.40595 C 154.14552,137.9215 157.38257,138.62915 162.02086,143.6611 C 164.29091,146.12381 166.14822,147.55225 166.14822,146.83541 C 166.14822,145.03633 173.38462,139.18344 175.60897,139.18344 C 176.6687,139.18344 179.14949,145.24375 179.17046,147.88378 C 179.18269,149.42359 180.07268,151.80844 181.14822,153.18344 C 182.22376,154.55844 183.11375,156.41584 183.12598,157.311 C 183.23657,165.40548 202.77466,161.7378 214.08938,151.49857 C 217.31976,148.57525 220.23709,146.18344 220.57235,146.18344 C 222.02217,146.18344 215.58331,157.05697 211.838,160.93344 C 208.12581,164.77563 207.94638,165.18344 209.96805,165.18344 C 211.4857,165.18344 215.64972,161.70189 222.92626,154.34903 C 228.82334,148.39011 234.94383,142.67527 236.52736,141.6494 C 239.39106,139.79419 239.41698,139.79713 241.35984,142.19645 C 242.79635,143.97046 243.13905,145.41235 242.65509,147.64607 C 242.29315,149.31663 241.58102,153.83344 241.07257,157.68344 C 239.97989,165.95739 234.26864,178.52797 228.69164,184.93418 C 225.90674,188.13315 224.0208,189.34009 221.06966,189.81199 C 215.67071,190.67532 216.14482,191.70037 221.89819,191.60331 C 224.51071,191.55924 227.40841,191.89796 228.33753,192.35602 C 229.36656,192.86333 230.2934,192.75755 230.70881,192.0854 C 231.11101,191.43464 232.6474,191.23328 234.45388,191.59457 C 241.31794,192.96738 243.49678,198.91759 238.14822,201.68344 C 235.70331,202.94775 235.14822,203.86674 235.14822,206.6501 C 235.14822,208.52852 234.69822,210.34352 234.14822,210.68344 C 233.59822,211.02336 233.14822,212.67801 233.14822,214.36044 C 233.14822,216.33334 232.08308,218.63253 230.14822,220.83622 C 228.49822,222.71547 227.14822,224.68737 227.14822,225.21824 C 227.14822,225.7491 226.62115,226.18344 225.97696,226.18344 C 225.33277,226.18344 224.09527,226.82447 223.22696,227.60796 C 221.18667,229.44893 204.48805,236.18344 201.96353,236.18344 C 200.68983,236.18344 200.28204,235.75694 200.76835,234.93344 z M 229.14822,204.57645 C 229.14822,202.49802 227.45705,202.89446 226.87804,205.10862 C 226.52486,206.45917 226.78853,206.87496 227.7614,206.50163 C 228.52415,206.20894 229.14822,205.34261 229.14822,204.57645 z M 165.14822,189.18344 C 164.55952,188.08344 163.72543,187.18344 163.29469,187.18344 C 161.39126,187.18344 155.14822,180.45841 155.14822,178.40804 C 155.14822,177.17322 154.52843,176.18344 153.75521,176.18344 C 152.03035,176.18344 151.12123,174.00264 151.78614,171.46004 C 152.06301,170.40127 151.58491,168.96082 150.71774,168.24114 C 149.33083,167.0901 149.14822,167.46783 149.14822,171.48767 C 149.14822,174.92548 148.74357,176.11578 147.49179,176.36012 C 143.99223,177.04321 160.57837,191.18344 164.87918,191.18344 C 165.90871,191.18344 165.97095,190.72073 165.14822,189.18344 z M 167.7081,176.2496 C 164.81369,173.05132 164.36704,162.18344 167.13001,162.18344 C 167.64904,162.18344 169.88828,164.85553 172.10611,168.12142 C 176.53002,174.63593 178.24323,176.26277 177.43833,173.18482 C 177.06861,171.77101 177.4069,171.18344 178.59061,171.18344 C 179.51221,171.18344 179.98814,170.73344 179.64822,170.18344 C 179.3083,169.63344 178.17964,169.18344 177.14009,169.18344 C 174.69905,169.18344 170.98937,164.21972 167.88729,156.80279 C 164.67774,149.1289 163.72006,150.75338 163.94078,163.49712 C 164.08399,171.76601 164.47453,173.97536 166.32114,176.96324 C 167.53612,178.9291 168.71542,179.98183 168.94182,179.30263 C 169.16823,178.62342 168.61305,177.24956 167.7081,176.2496 z M 133.43389,175.16786 C 133.144,174.05929 132.43465,172.86046 131.85757,172.50381 C 131.19779,172.09604 131.057,172.50335 131.47828,173.60118 C 131.84675,174.56139 132.14822,175.76021 132.14822,176.26523 C 132.14822,176.77024 132.55609,177.18344 133.0546,177.18344 C 133.55311,177.18344 133.72379,176.27643 133.43389,175.16786 z M 141.70316,169.59177 C 138.67062,165.86901 137.14822,163.04778 137.14822,161.15079 C 137.14822,157.50742 135.57656,156.51457 134.11935,159.23739 C 133.23581,160.88829 133.29994,161.60149 134.41411,162.5154 C 135.1973,163.15782 136.8815,165.25844 138.15677,167.18344 C 141.19175,171.7647 144.27746,175.18344 145.37748,175.18344 C 145.86182,175.18344 144.20838,172.66719 141.70316,169.59177 z M 187.14822,171.80007 C 187.14822,171.58922 186.24822,171.18135 185.14822,170.89369 C 184.04822,170.60603 183.14822,170.77855 183.14822,171.27706 C 183.14822,171.77557 184.04822,172.18344 185.14822,172.18344 C 186.24822,172.18344 187.14822,172.01092 187.14822,171.80007 z M 196.249,171.05209 C 198.11857,170.42985 200.32322,169.28376 201.14822,168.50522 C 202.34983,167.37128 201.90863,167.39741 198.93034,168.63656 C 196.8855,169.48735 194.09956,170.18344 192.73936,170.18344 C 191.37915,170.18344 189.98814,170.63344 189.64822,171.18344 C 188.82489,172.51562 192.04418,172.45156 196.249,171.05209 z M 149.75239,161.45427 C 149.42009,161.12198 149.18375,161.71261 149.22717,162.76677 C 149.27515,163.93172 149.51211,164.16867 149.83133,163.37094 C 150.1202,162.64906 150.08468,161.78657 149.75239,161.45427 z M 149.14822,153.98344 C 149.14822,151.92235 148.80397,151.12769 148.18097,151.75069 C 147.64899,152.28267 147.47647,153.72267 147.7976,154.95069 C 148.62126,158.10034 149.14822,157.72296 149.14822,153.98344 z M 104.83475,216.93344 C 107.77561,211.44573 110.81603,209.83293 113.70326,212.22912 C 115.80862,213.97642 115.50296,215.34932 112.20459,218.96058 C 109.92594,221.45538 108.44322,222.18344 105.64112,222.18344 L 102.02128,222.18344 L 104.83475,216.93344 z M 78.14822,210.7629 C 78.14822,209.9816 76.75943,209.03732 75.06201,208.66451 C 72.44296,208.08927 71.45908,206.90842 68.56201,200.86326 C 65.45237,194.37452 65.13941,192.89096 65.04932,184.21165 C 64.99493,178.97114 64.60829,172.20844 64.19012,169.18344 C 63.43569,163.72593 63.42873,163.71684 63.28902,168.00676 C 63.17461,171.51972 62.82527,172.26789 61.42527,171.99828 C 59.19216,171.56822 55.18585,164.47815 55.16467,160.91874 C 55.15244,158.86344 55.98214,157.64559 58.39822,156.17248 C 63.20658,153.24076 65.5061,153.51109 64.87122,156.93344 L 64.36106,159.68344 L 65.93364,157.18344 C 66.79855,155.80844 70.68816,151.64616 74.57721,147.93392 C 79.99591,142.76159 81.16919,141.18429 79.59822,141.18392 C 77.39535,141.1834 75.14822,139.44078 75.14822,137.73299 C 75.14822,136.25045 90.87153,130.6814 100.14822,128.87823 C 101.52322,128.61096 99.20381,128.62846 94.99397,128.91712 C 83.13921,129.72997 76.2786,127.71805 82.39822,125.22333 C 83.63572,124.71885 88.43444,122.64499 93.06206,120.61474 C 101.2209,117.03526 101.73844,116.94142 110.13886,117.51834 C 114.90349,117.84556 119.66727,118.39724 120.72502,118.7443 C 121.78278,119.09135 123.28083,119.56992 124.05401,119.80777 C 125.00322,120.09978 124.35837,121.05284 122.0685,122.74226 C 118.71172,125.21881 115.87924,126.24073 107.14822,128.12528 C 103.04241,129.0115 103.2176,129.0483 109.14822,128.54534 C 117.36697,127.84833 125.7836,124.16526 130.72728,119.10247 C 135.04229,114.68351 137.8203,114.12276 139.04159,117.42422 C 141.01034,122.74627 135.97401,129.80598 126.14822,135.49757 C 121.07633,138.43546 120.06444,138.65776 113.14822,138.35352 C 95.67801,137.58501 89.6155,137.7457 87.64822,139.0294 C 86.02418,140.08912 85.98511,140.22913 87.44035,139.77416 C 90.65333,138.76966 106.90593,138.94847 108.80125,140.00917 C 110.83855,141.14932 111.50868,140.77083 99.27078,145.39194 C 94.35349,147.24874 87.4866,152.38667 78.03354,161.28202 C 72.86639,166.14432 69.83429,174.79142 70.73171,182.10574 C 71.71419,190.1132 72.51221,191.68785 78.64826,197.72662 C 83.22842,202.23416 84.14822,203.7225 84.14822,206.62622 C 84.14822,209.05011 83.55856,210.42865 82.21396,211.14826 C 79.54607,212.57607 78.14822,212.44358 78.14822,210.7629 z M 253.37846,209.63216 C 249.03436,206.58943 247.06548,199.66636 249.2957,195.2762 C 250.02012,193.85018 252.25501,191.10844 254.26212,189.18344 C 257.87654,185.71688 260.14822,179.75689 260.14822,173.74062 C 260.14822,172.33417 260.52599,171.18344 260.9877,171.18344 C 262.07815,171.18344 264.14822,175.74299 264.14822,178.14481 C 264.14822,179.70325 264.68874,179.48873 267.4164,176.84776 C 271.06847,173.31175 271.37981,172.39735 268.27056,174.33911 C 266.6865,175.32837 265.92203,175.35725 265.02646,174.46168 C 264.13088,173.5661 264.24282,171.907 265.5015,167.42111 C 267.50664,160.27483 267.56401,153.53477 265.64822,150.18344 C 263.88786,147.10401 263.71715,149.34934 265.36514,153.90678 C 266.31582,156.53583 266.31811,157.64528 265.37561,158.97777 C 264.71207,159.91589 263.2472,162.38683 262.12035,164.46876 C 260.9935,166.55069 259.71826,168.03574 259.28648,167.76889 C 258.8547,167.50204 257.8909,165.34864 257.1447,162.98357 C 256.3985,160.6185 255.4699,158.23344 255.08116,157.68344 C 254.69241,157.13344 254.07213,154.84916 253.70275,152.60727 C 253.04006,148.58509 252.47152,147.49671 246.73861,139.27527 C 244.57194,136.1681 244.11816,134.8135 244.96148,133.97018 C 245.8048,133.12686 246.75126,133.13717 248.66815,134.01057 C 252.151,135.59746 253.0666,135.43628 250.70709,133.65164 C 249.63947,132.84413 247.83947,132.18093 246.70709,132.17786 C 242.37274,132.16612 237.06972,129.99326 235.48952,127.58158 C 233.90481,125.163 232.84093,114.23347 233.91263,111.38183 C 234.2357,110.52219 235.4623,110.26455 237.52501,110.62307 L 240.64822,111.16592 L 237.14822,109.75075 C 235.22322,108.97241 233.24528,108.30135 232.75281,108.25951 C 231.75867,108.17504 232.55599,126.63417 233.66739,129.43344 C 234.04954,130.39594 234.93395,131.18344 235.63276,131.18344 C 236.33158,131.18344 237.43966,131.82967 238.09517,132.61952 C 239.74229,134.60418 238.07786,137.44577 233.67403,140.16749 C 231.74932,141.35703 229.3966,143.64725 228.44578,145.25686 C 226.4946,148.55994 225.16361,149.0303 225.11642,146.43344 C 225.09892,145.47094 224.42392,143.80993 223.61642,142.74231 C 222.80891,141.67469 222.0808,139.19969 221.99839,137.24231 C 221.87109,134.21878 221.78589,134.09716 221.43193,136.43382 C 220.82056,140.46981 218.21037,141.45847 214.45079,139.07808 C 212.09527,137.58667 211.47555,136.58548 211.86463,134.90004 L 212.37634,132.68344 L 210.71618,134.9183 C 209.80309,136.14748 207.0597,138.32309 204.61975,139.75299 C 202.17981,141.18289 199.07949,143.66484 197.73016,145.26843 C 194.91563,148.61331 191.41853,150.18344 186.78312,150.18344 C 182.81599,150.18344 181.14822,148.65038 181.14822,145.00368 C 181.14822,139.91713 184.17954,134.25946 188.52152,131.24212 C 190.79121,129.66486 194.199,126.75642 196.09439,124.77891 C 197.98978,122.8014 200.43283,121.18344 201.52339,121.18344 C 202.61395,121.18344 205.0435,120.62755 206.92239,119.94814 C 210.18854,118.76708 210.46738,118.85703 213.27251,121.99651 C 214.88618,123.80253 215.9418,125.70841 215.61833,126.23181 C 215.29485,126.75521 215.71591,127.18344 216.55402,127.18344 C 217.39213,127.18344 218.58014,128.12198 219.19406,129.26909 C 219.80797,130.41619 220.48012,131.18487 220.68772,130.97727 C 221.88298,129.78202 224.07331,118.13102 224.25177,112.01908 C 224.5554,101.62074 227.55084,99.235686 235.91669,102.73116 C 240.19898,104.52041 244.14822,107.93953 244.14822,109.85774 C 244.14822,110.58688 244.71876,111.18344 245.41609,111.18344 C 248.1588,111.18344 253.99119,116.19202 254.62876,119.09485 C 255.01928,120.87287 256.9893,123.45114 259.5784,125.57271 C 261.9439,127.51107 264.68082,130.80394 265.66044,132.89022 C 266.64005,134.97649 268.6522,138.48344 270.13188,140.68344 C 271.61155,142.88344 274.0836,147.29188 275.62532,150.47997 C 278.30968,156.03089 278.38164,156.56055 277.32374,162.97997 C 276.62807,167.20137 275.5451,170.23884 274.39889,171.18344 C 272.89942,172.41918 272.71122,173.45211 273.33066,177.04659 C 273.8492,180.0556 273.66391,182.2281 272.73364,184.04659 C 271.99173,185.49686 271.05475,188.66815 270.65146,191.0939 C 269.96217,195.2399 267.11038,199.36272 264.27901,200.30651 C 263.34818,200.61679 263.28212,201.40542 264.02357,203.35559 C 264.82379,205.46032 264.6706,206.3057 263.25722,207.58479 C 262.28566,208.46405 260.76523,209.18344 259.8785,209.18344 C 258.99176,209.18344 257.98814,209.63344 257.64822,210.18344 C 256.80239,211.55202 255.96511,211.44392 253.37846,209.63216 z M 46.56895,201.21544 C 45.31482,200.70804 42.84525,196.99333 40.34588,191.85476 C 37.72038,186.45685 35.45902,183.09947 34.17409,182.69165 C 31.20049,181.74787 29.83419,178.44434 29.74644,171.98623 C 29.69675,168.32874 29.3221,166.60956 28.70845,167.22321 C 27.16657,168.76508 24.59672,168.33651 22.67923,166.21771 C 20.74878,164.08459 20.2251,157.4286 21.65372,153.18344 C 22.417,150.91537 22.33756,150.81263 20.79747,152.07594 C 19.8638,152.84182 18.86105,153.22961 18.56914,152.93769 C 17.34469,151.71324 18.14524,134.43945 19.62408,130.17484 C 22.43316,122.07412 22.13688,122.47393 23.72833,124.63646 C 25.02766,126.40203 25.11082,126.11408 24.59482,121.63646 C 24.28088,118.9123 23.86921,115.89639 23.68,114.93444 C 23.12995,112.13799 24.6018,112.06697 28.19325,114.71666 C 30.03219,116.07339 31.64294,117.18344 31.77269,117.18344 C 31.90244,117.18344 31.59002,115.72391 31.07841,113.94004 C 30.5668,112.15617 30.14822,110.58117 30.14822,110.44004 C 30.14822,109.44702 34.63662,110.53905 37.50066,112.22888 C 43.7498,115.91596 45.89912,125.7309 42.22785,133.81574 C 40.82049,136.915 39.07605,138.64216 35.24981,140.72466 L 30.14822,143.5013 L 30.29012,149.09237 C 30.42865,154.55037 30.44907,154.58824 31.14822,150.68344 C 31.54212,148.48344 31.98151,147.13344 32.12463,147.68344 C 32.26775,148.23344 32.69517,147.33344 33.07445,145.68344 L 33.76405,142.68344 L 37.21005,146.24372 C 39.47214,148.58083 41.30186,151.95994 42.5358,156.07929 C 44.64553,163.12237 47.24217,166.23314 50.3361,165.42406 C 51.87564,165.02146 53.58103,166.16689 57.18139,170.02175 C 61.79184,174.95809 61.98926,175.41364 62.31227,181.86126 C 62.62895,188.18222 62.43266,188.89829 58.89046,194.34413 C 54.00953,201.84816 51.53866,203.22608 46.56895,201.21544 z M 53.39822,186.81147 C 53.26072,186.46605 53.14822,185.56092 53.14822,184.80007 C 53.14822,184.03922 52.35097,183.20822 51.37657,182.95341 C 50.21844,182.65055 49.14229,180.68503 48.26901,177.27767 C 47.53426,174.41083 46.68373,172.31459 46.37896,172.61937 C 46.07418,172.92414 46.35687,174.86324 47.00716,176.92847 C 48.33145,181.13427 48.96372,184.53828 49.07391,188.05541 C 49.14387,190.28854 49.27993,190.33993 51.39822,188.93344 C 52.63572,188.11177 53.53572,187.15688 53.39822,186.81147 z M 27.01159,140.77845 C 29.286,138.75062 30.12927,131.18344 28.08083,131.18344 C 27.48415,131.18344 27.28159,132.0283 27.62151,133.09928 C 27.95594,134.153 27.72403,135.32757 27.10614,135.70945 C 25.70035,136.57827 22.13473,144.77464 22.18736,147.01635 C 22.20929,147.95029 22.80887,147.3641 23.55073,145.68344 C 24.27906,144.03344 25.83645,141.8262 27.01159,140.77845 z M 76.68582,184.88117 C 75.85614,183.61492 74.90389,181.21182 74.56972,179.54096 C 73.66877,175.03621 79.68739,163.68219 85.97095,158.03273 C 91.96458,152.64394 102.71465,146.6729 103.66229,148.20621 C 104.68195,149.85605 99.46356,155.98192 95.1745,158.17003 C 93.05268,159.2525 90.47645,161.38585 89.44955,162.9108 C 86.99959,166.54901 84.14822,172.87909 84.14822,174.67985 C 84.14822,177.07253 80.06555,187.18344 79.09942,187.18344 C 78.60162,187.18344 77.51549,186.14742 76.68582,184.88117 z M 211.59482,180.09703 C 210.14857,177.75696 224.81576,166.51764 226.76805,168.46994 C 228.05775,169.75964 225.13062,177.05213 222.48929,179.12979 C 219.67004,181.34742 212.74745,181.96202 211.59482,180.09703 z M 192.38752,158.37842 C 191.448,157.76268 191.79153,156.93199 193.73593,155.11781 C 195.17095,153.77891 197.028,150.98752 197.86271,148.91472 C 199.68419,144.3915 203.05302,141.55543 208.27459,140.14941 C 213.13269,138.84126 216.14822,140.21645 216.14822,143.74006 C 216.14822,145.50501 215.3504,146.56219 213.39822,147.38404 C 211.88572,148.02079 208.62322,150.68511 206.14822,153.30475 C 202.66397,156.99262 200.74533,158.19605 197.64822,158.6362 C 195.44822,158.94886 193.0809,158.83286 192.38752,158.37842 z M 200.83862,112.99424 C 201.63883,103.12651 206.06708,100.53926 212.49554,106.18352 C 215.28373,108.63158 215.9226,109.919 215.96761,113.18022 C 216.02918,117.64128 216.11418,117.59434 205.98753,118.69165 L 200.32685,119.30503 L 200.83862,112.99424 z M 83.58134,116.41813 C 82.26167,115.50936 74.14822,104.73205 74.14822,103.88787 C 74.14822,103.55027 75.83572,102.99077 77.89822,102.64454 C 88.52385,100.86079 90.72981,98.587975 89.92859,90.24957 C 89.66086,87.463195 89.56344,85.183433 89.7121,85.183433 C 91.2267,85.183433 99.05172,89.331833 99.45822,90.350296 C 99.81587,91.246353 100.01621,91.10968 100.06927,89.933433 C 100.17974,87.48477 102.73225,87.75147 104.59152,90.405939 C 107.10432,93.993476 106.44775,95.667788 101.11278,99.276926 C 98.34329,101.15051 95.30579,103.85319 94.36278,105.28289 C 91.02298,110.34641 85.7555,117.18323 85.20572,117.16813 C 84.89909,117.15971 84.16812,116.82221 83.58134,116.41813 z M 111.39822,116.44304 C 107.96072,116.24777 105.14882,115.77198 105.14955,115.38572 C 105.15082,114.72048 110.36269,111.95344 123.43877,105.67576 C 128.69775,103.15098 133.85897,98.560852 132.7198,97.421679 C 132.46876,97.170643 130.91719,97.923813 129.27187,99.095389 C 125.1728,102.01418 118.67134,104.18343 114.02249,104.18343 C 109.76454,104.18343 108.9941,102.87146 112.23387,101.1376 C 115.32225,99.484741 114.06817,99.088293 109.84822,100.38343 C 107.81416,101.0077 105.87122,101.23977 105.53059,100.89913 C 105.18995,100.5585 106.94812,97.895614 109.43763,94.981614 C 111.92713,92.067615 114.10462,89.233433 114.27649,88.683433 C 114.44836,88.133433 115.87163,86.604157 117.43931,85.285042 C 119.00699,83.965927 121.94532,80.384619 123.96893,77.32658 C 125.99254,74.26854 128.09822,71.747816 128.64822,71.724971 C 129.19822,71.702125 129.89875,73.708433 130.20494,76.183433 L 130.76167,80.683433 L 131.98461,77.683433 C 132.65723,76.033433 133.40509,74.120933 133.64651,73.433433 C 134.90845,69.839751 139.23954,74.695901 140.15552,80.731537 C 140.71954,84.447988 140.41453,86.077583 138.47189,89.726827 L 136.09945,94.183433 L 138.55051,94.183433 C 141.43565,94.183433 141.94002,95.779231 141.11944,102.31146 C 140.31935,108.68064 137.89262,111.92851 131.82184,114.75507 C 126.61765,117.17814 125.68931,117.25486 111.39822,116.44304 z M 123.06097,93.189958 C 126.40896,89.893546 129.14822,86.665105 129.14822,86.015644 C 129.14822,85.366182 128.13572,85.774856 126.89822,86.923806 C 125.63632,88.095415 122.45245,89.349306 119.64822,89.77905 L 114.64822,90.545292 L 117.89822,91.509023 C 119.68572,92.039075 121.14822,92.825042 121.14822,93.255616 C 121.14822,93.686189 119.68572,95.191102 117.89822,96.599866 C 116.11072,98.00863 115.17146,99.166245 115.81097,99.172344 C 116.45048,99.178443 119.71298,96.486369 123.06097,93.189958 z M 196.61302,103.14669 C 195.01286,101.47648 192.67867,99.852704 191.42593,99.538286 C 188.48311,98.799684 188.55595,98.103371 191.89822,95.023599 C 195.14179,92.034778 200.45611,91.844701 204.61362,94.568808 C 208.45745,97.087379 208.89969,99.166727 206.06498,101.39284 C 204.73576,102.43669 202.85558,103.94159 201.88679,104.73708 C 199.64405,106.57864 200.00545,106.68762 196.61302,103.14669 z M 71.15318,99.433433 C 71.15592,99.020933 72.21733,97.359688 73.51187,95.741777 C 75.6609,93.055946 76.44316,92.786815 82.5069,92.647113 C 89.78039,92.47954 90.7333,93.475403 87.59151,97.960927 C 86.21995,99.919113 85.14959,100.18343 78.59151,100.18343 C 74.4977,100.18343 71.15045,99.845933 71.15318,99.433433 z M 248.79451,92.133841 C 245.39628,90.312498 244.86331,90.269586 242.88142,91.657752 C 241.6834,92.496876 239.79084,93.171328 238.67571,93.156532 C 236.92435,93.133295 237.08772,92.758764 239.87528,90.406532 L 243.10235,87.683433 L 241.14752,85.183433 C 240.07236,83.808433 239.17579,82.008433 239.15514,81.183433 C 239.09275,78.690786 237.18197,82.235074 237.16353,84.877669 C 237.15511,86.084499 236.03744,88.334499 234.67982,89.877669 C 232.03966,92.878667 231.41226,91.892801 233.31066,87.72626 C 234.87605,84.290606 233.91329,83.65528 230.05691,85.579097 C 224.87727,88.163044 224.62793,87.471543 229.02086,82.705776 C 231.29091,80.243065 233.18265,77.880565 233.22473,77.455776 C 233.26681,77.030987 233.46626,75.79875 233.66794,74.717471 C 234.15659,72.097758 232.43263,70.183433 229.58479,70.183433 C 228.3096,70.183433 226.98814,69.733433 226.64822,69.183433 C 226.27698,68.582753 227.57117,68.183433 229.8892,68.183433 C 234.0268,68.183433 236.14822,66.801391 236.14822,64.105878 C 236.14822,63.183222 236.82322,61.868122 237.64822,61.183433 C 239.30559,59.807934 239.51027,60.361095 239.18809,65.345067 C 239.06519,67.246152 239.6064,68.194079 241.08212,68.662454 C 243.73408,69.504152 243.76162,71.183433 241.12347,71.183433 C 239.88575,71.183433 238.73054,72.151821 238.15152,73.674749 C 236.7487,77.364448 237.73745,78.897336 241.19307,78.390158 C 243.78321,78.010007 244.24341,77.44034 244.80685,73.916806 C 245.39593,70.232876 245.57061,70.040596 246.80036,71.722387 C 247.54168,72.736205 248.14822,74.587339 248.14822,75.836019 C 248.14822,77.638551 248.97241,78.328276 252.14822,79.183433 C 256.54634,80.367724 257.3864,81.865831 253.93164,82.363882 C 252.71252,82.539635 251.03629,83.896682 250.2067,85.379542 C 248.79404,87.904579 248.85034,88.237449 251.09389,90.625599 C 254.27202,94.008571 253.38181,94.59249 248.79451,92.133841 z M 247.14822,82.183433 C 247.14822,81.633433 246.47322,81.183433 245.64822,81.183433 C 244.82322,81.183433 244.14822,81.633433 244.14822,82.183433 C 244.14822,82.733433 244.82322,83.183433 245.64822,83.183433 C 246.47322,83.183433 247.14822,82.733433 247.14822,82.183433 z M 179.89822,90.859906 C 176.66916,88.216066 176.49592,87.083733 178.97696,84.838421 C 182.53265,81.620567 191.82139,83.033065 192.80216,86.940757 C 194.17614,92.415116 185.147,95.157419 179.89822,90.859906 z M 171.12676,85.384388 C 167.12698,83.345129 166.49597,80.506628 169.36378,77.453982 C 170.97074,75.743445 171.79204,75.472869 172.8108,76.318365 C 173.79226,77.132903 174.14822,77.129579 174.14822,76.305878 C 174.14822,74.739192 177.38425,74.90432 179.68756,76.588537 C 181.52605,77.932878 181.53623,78.146556 179.92293,81.529672 C 177.55643,86.492277 175.26732,87.495427 171.12676,85.384388 z M 68.07391,84.933433 C 68.03304,84.795933 67.80368,83.62387 67.56422,82.328848 C 67.32476,81.033827 66.2332,78.83564 65.13853,77.44399 C 64.04386,76.052339 63.14822,74.33587 63.14822,73.629614 C 63.14822,72.923358 62.37932,71.00579 61.43956,69.368351 C 60.01906,66.893265 59.95121,66.125738 61.03725,64.817142 C 62.12645,63.504739 78.53942,54.183433 79.7611,54.183433 C 79.97402,54.183433 80.14822,56.573807 80.14822,59.495375 C 80.14822,64.190345 80.48315,65.05494 83.03186,66.939284 C 84.61786,68.111866 86.86786,71.038568 88.03186,73.443067 C 90.23599,77.996194 90.87909,84.183433 89.14822,84.183433 C 88.59822,84.183433 88.14822,83.841015 88.14822,83.422504 C 88.14822,81.093853 75.85752,70.183433 73.23428,70.183433 C 70.83581,70.183433 72.69205,74.644176 76.02212,76.88291 C 78.99471,78.881317 79.17313,79.232751 77.52212,79.837466 C 76.49147,80.214961 74.37619,81.572234 72.82149,82.853627 C 70.37535,84.869756 68.32231,85.769142 68.07391,84.933433 z M 100.14822,84.479726 C 97.73309,83.600922 93.14822,78.93659 93.14822,77.35841 C 93.14822,76.159175 94.44887,76.025432 100.64822,76.587202 C 106.6563,77.13164 108.14822,76.994829 108.14822,75.899448 C 108.14822,75.147385 109.31598,73.44112 110.74323,72.107747 C 113.84766,69.207534 116.14822,65.029632 116.14822,62.29211 C 116.14822,59.195542 118.26534,58.609847 120.31388,61.139693 C 122.73933,64.134985 122.5354,71.390726 119.9477,74.168288 C 118.91514,75.276618 116.85034,76.215061 115.35926,76.253718 C 113.86819,76.292375 111.74822,76.710747 110.64822,77.183433 C 109.09926,77.849044 109.60668,78.058713 112.89822,78.113148 C 115.23572,78.151805 117.13182,78.520933 117.11178,78.933433 C 117.09173,79.345933 115.44427,80.920933 113.45075,82.433433 C 109.91312,85.117456 104.28156,85.983745 100.14822,84.479726 z M 159.12347,75.618333 C 157.47877,71.292448 157.96513,69.501913 161.14232,68.185877 C 165.25027,66.484307 169.14822,68.911633 169.14822,73.171302 C 169.14822,78.426137 160.95168,80.426903 159.12347,75.618333 z M 199.10197,74.561796 C 197.69999,70.874289 199.55695,68.895593 203.93943,69.407223 C 206.72675,69.732627 207.49368,69.404992 208.1819,67.594847 C 208.64395,66.379574 210.04901,64.665902 211.30427,63.786687 C 212.87955,62.683316 213.66057,61.031056 213.8255,58.452987 C 213.95692,56.398667 214.78935,54.187795 215.67535,53.539938 C 217.11865,52.484569 217.07089,52.293664 215.21624,51.705023 C 213.43981,51.141205 213.23332,50.503422 213.76028,47.207999 C 214.27951,43.960933 214.10644,43.392327 212.63949,43.525702 C 209.88519,43.776123 209.43618,36.634875 212.11605,35.200651 C 216.10737,33.064559 223.6566,39.198609 219.92964,41.549512 C 218.56459,42.410565 218.74107,42.930125 221.25121,45.440274 C 224.68207,48.871134 224.90254,50.709368 222.06526,52.227834 C 220.10865,53.274976 220.08364,53.454589 221.65291,55.188614 C 223.90902,57.681585 223.20254,60.390807 219.88123,61.982667 C 217.51073,63.118819 217.28902,63.578002 218.24683,65.367682 C 219.18724,67.124867 218.88654,67.906652 216.25996,70.533233 C 213.43044,73.362755 212.90692,73.530828 210.15659,72.492695 C 207.47695,71.481242 207.14822,71.562367 207.14822,73.235113 C 207.14822,75.200115 204.40605,77.183433 201.68921,77.183433 C 200.81444,77.183433 199.65018,76.003697 199.10197,74.561796 z M 96.9161,74.315118 C 93.2713,73.472416 90.14822,70.66218 90.14822,68.225191 C 90.14822,66.47084 90.78593,66.264152 95.79237,66.395874 C 100.96463,66.531958 101.6753,66.27714 104.29237,63.348127 C 107.67423,59.563172 107.8347,58.114662 105.14209,55.677885 C 102.70015,53.467956 101.57787,54.249207 103.10238,57.097787 C 105.65248,61.862681 99.8313,65.830535 95.27804,62.431041 C 92.25568,60.174524 91.90697,58.415702 93.9898,55.933433 C 95.78573,53.793079 95.1304,53.746213 90.49397,55.683433 C 86.5202,57.343781 82.14822,57.667869 82.14822,56.30209 C 82.14822,54.950202 88.29171,49.197958 91.56382,47.486124 C 95.14606,45.612043 102.12318,46.121718 107.4328,48.645346 C 111.91345,50.774974 112.6982,52.05472 113.59379,58.692559 C 114.19863,63.175369 113.95924,64.163859 111.31545,68.100368 C 106.96111,74.583826 103.86251,75.921177 96.9161,74.315118 z M 99.87919,53.490442 C 98.90622,53.236899 97.55622,53.253573 96.87919,53.527496 C 96.20215,53.801419 96.99822,54.008864 98.64822,53.988484 C 100.29822,53.968105 100.85216,53.743986 99.87919,53.490442 z M 191.14822,74.271217 C 189.47072,73.792891 188.67077,72.871923 188.71677,71.471912 C 188.76181,70.100967 188.3157,69.565671 187.41589,69.910961 C 186.6627,70.199986 184.96175,69.417434 183.636,68.171957 C 181.09366,65.783548 181.4948,63.031887 184.55662,61.856958 C 186.49759,61.112138 191.41497,65.045922 190.74039,66.803829 C 190.09588,68.483409 191.3225,68.609153 192.90584,67.025815 C 194.74562,65.186035 197.14822,67.893143 197.14822,71.805878 C 197.14822,75.401215 196.3137,75.744112 191.14822,74.271217 z M 127.14822,68.357747 C 127.14822,67.90362 128.27322,66.475178 129.64822,65.183433 C 132.4469,62.55421 132.92105,60.183433 130.64822,60.183433 C 129.82322,60.183433 129.14822,60.547425 129.14822,60.992303 C 129.14822,61.437182 128.52732,62.650303 127.76845,63.688127 C 126.47232,65.460691 126.26413,65.330965 124.3343,61.548172 C 123.20439,59.333373 120.67529,56.297351 118.71407,54.801457 C 116.75285,53.305563 115.14822,51.654552 115.14822,51.132542 C 115.14822,49.458647 121.54145,50.125808 124.8536,52.14534 C 127.38045,53.686045 129.12295,53.973761 133.08511,53.504501 C 137.70024,52.957907 138.1819,53.100252 138.97539,55.245271 C 141.27772,61.469047 136.38339,69.183433 130.13244,69.183433 C 128.49112,69.183433 127.14822,68.811874 127.14822,68.357747 z M 156.14822,64.865671 C 154.10109,63.810762 153.6707,62.887188 153.77232,59.76724 C 153.95798,54.06691 156.98491,52.693936 161.51336,56.256013 C 164.7562,58.806833 164.93893,62.51619 161.92571,64.626729 C 159.26375,66.491243 159.29986,66.48975 156.14822,64.865671 z M 85.15957,64.301792 C 80.86243,63.540129 80.08595,60.988465 83.65628,59.361713 C 87.4662,57.625799 89.54212,57.909365 91.9739,60.497884 C 96.10624,64.896555 94.27677,65.917805 85.15957,64.301792 z M 180.89822,59.494107 C 179.93572,59.24258 179.14822,58.379821 179.14822,57.576865 C 179.14822,55.523149 183.67678,46.819579 185.55748,45.258743 C 187.41226,43.719412 190.14822,44.509624 190.14822,46.584661 C 190.14822,47.389859 191.00665,48.321112 192.05584,48.654112 C 196.74397,50.142068 194.66356,56.234512 188.60256,58.766959 C 185.16055,60.205122 184.02803,60.312011 180.89822,59.494107 z M 155.63433,52.160964 C 154.72309,50.686535 157.99181,41.457429 159.65073,40.820843 C 160.4206,40.525418 162.05002,41.093078 163.27166,42.082309 C 165.37226,43.783272 165.42215,44.133408 164.19057,48.532172 C 162.97649,52.868456 162.66408,53.183433 159.57728,53.183433 C 157.75621,53.183433 155.98189,52.723322 155.63433,52.160964 z M 163.49673,40.131947 C 162.18137,38.816579 162.91966,34.618012 164.73061,33.115055 C 165.47911,32.493854 167.73108,31.615818 169.73499,31.163863 L 173.37846,30.342127 L 172.71948,34.463166 C 172.35704,36.729737 171.57514,39.169031 170.98191,39.883819 C 169.68604,41.445248 164.96648,41.601698 163.49673,40.131947 z M 202.49618,34.778955 L 199.64822,32.301885 L 201.86137,30.05729 C 203.79196,28.09926 204.55797,27.932113 207.86137,28.748065 C 213.73996,30.2001 213.52822,34.751085 207.49618,36.59734 C 205.98419,37.060123 204.49711,36.519307 202.49618,34.778955 z M 175.89822,35.494107 C 173.34796,34.827655 173.75798,31.274437 176.69974,28.548104 C 179.95649,25.529855 184.78008,25.024379 186.38291,27.533383 C 186.93416,28.396287 187.12142,28.393278 187.13291,27.521331 C 187.15145,26.113858 194.27807,24.772484 197.05489,25.653813 C 200.14759,26.635398 200.72455,30.052532 198.21942,32.550965 L 196.08123,34.683433 L 191.1062,32.037453 C 187.50968,30.124636 185.92572,29.718975 185.3897,30.573426 C 184.4434,32.081871 179.07512,36.220511 178.26336,36.067432 C 177.92503,36.003631 176.86072,35.745635 175.89822,35.494107 z "
     id="path2161" />
</svg>
